<mxfile host="app.diagrams.net" agent="Mozilla/5.0 (Windows NT 10.0; Win64; x64) AppleWebKit/537.36 (KHTML, like Gecko) Chrome/137.0.0.0 Safari/537.36" version="27.1.4">
  <diagram name="Seite-1" id="er64MGA8UXQ89kL8iLkj">
    <mxGraphModel dx="1213" dy="1800" grid="1" gridSize="10" guides="1" tooltips="1" connect="1" arrows="1" fold="1" page="1" pageScale="1" pageWidth="827" pageHeight="1169" math="0" shadow="0">
      <root>
        <mxCell id="0" />
        <mxCell id="1" parent="0" />
        <mxCell id="Hf_RA5JBVKpgCVO6AaP0-1" value="" style="whiteSpace=wrap;html=1;aspect=fixed;" parent="1" vertex="1">
          <mxGeometry x="240" y="-200" width="870" height="870" as="geometry" />
        </mxCell>
        <mxCell id="Hf_RA5JBVKpgCVO6AaP0-7" value="&lt;b&gt;&lt;font style=&quot;font-size: 20px;&quot;&gt;Backend&lt;/font&gt;&lt;/b&gt;" style="text;html=1;align=center;verticalAlign=middle;whiteSpace=wrap;rounded=0;" parent="1" vertex="1">
          <mxGeometry x="630" y="-260" width="100" height="40" as="geometry" />
        </mxCell>
        <mxCell id="Hf_RA5JBVKpgCVO6AaP0-9" value="&lt;font style=&quot;font-size: 16px;&quot;&gt;server.js&lt;/font&gt;" style="swimlane;whiteSpace=wrap;html=1;" parent="1" vertex="1">
          <mxGeometry x="590" y="-190" width="490" height="70" as="geometry" />
        </mxCell>
        <mxCell id="Hf_RA5JBVKpgCVO6AaP0-10" value="- Creates the application (server)&lt;div&gt;- Starts the server&lt;/div&gt;" style="text;html=1;align=left;verticalAlign=middle;resizable=0;points=[];autosize=1;strokeColor=none;fillColor=none;" parent="Hf_RA5JBVKpgCVO6AaP0-9" vertex="1">
          <mxGeometry x="5" y="25" width="200" height="40" as="geometry" />
        </mxCell>
        <mxCell id="Hf_RA5JBVKpgCVO6AaP0-20" value="package.json" style="swimlane;whiteSpace=wrap;html=1;" parent="1" vertex="1">
          <mxGeometry x="260" y="-190" width="200" height="200" as="geometry" />
        </mxCell>
        <mxCell id="Hf_RA5JBVKpgCVO6AaP0-21" value="- Contains dependencies etc.&amp;nbsp;&lt;div&gt;important for npm&lt;/div&gt;&lt;div&gt;- Starting point when running&amp;nbsp;&lt;/div&gt;&lt;div&gt;npm dev run&lt;/div&gt;" style="text;html=1;align=left;verticalAlign=middle;resizable=0;points=[];autosize=1;strokeColor=none;fillColor=none;" parent="Hf_RA5JBVKpgCVO6AaP0-20" vertex="1">
          <mxGeometry x="10" y="30" width="180" height="70" as="geometry" />
        </mxCell>
        <mxCell id="Hf_RA5JBVKpgCVO6AaP0-23" value="" style="endArrow=classic;html=1;rounded=0;exitX=1.005;exitY=0.075;exitDx=0;exitDy=0;entryX=0;entryY=0.25;entryDx=0;entryDy=0;exitPerimeter=0;" parent="1" source="Hf_RA5JBVKpgCVO6AaP0-20" target="Hf_RA5JBVKpgCVO6AaP0-9" edge="1">
          <mxGeometry width="50" height="50" relative="1" as="geometry">
            <mxPoint x="470" y="50" as="sourcePoint" />
            <mxPoint x="520" as="targetPoint" />
          </mxGeometry>
        </mxCell>
        <mxCell id="Hf_RA5JBVKpgCVO6AaP0-24" value="auth.route.js" style="swimlane;whiteSpace=wrap;html=1;" parent="1" vertex="1">
          <mxGeometry x="590" y="-30" width="220" height="70" as="geometry" />
        </mxCell>
        <mxCell id="Hf_RA5JBVKpgCVO6AaP0-25" value="- Contains routes for authentication" style="text;html=1;align=left;verticalAlign=middle;resizable=0;points=[];autosize=1;strokeColor=none;fillColor=none;" parent="Hf_RA5JBVKpgCVO6AaP0-24" vertex="1">
          <mxGeometry y="25" width="210" height="30" as="geometry" />
        </mxCell>
        <mxCell id="Hf_RA5JBVKpgCVO6AaP0-26" value="" style="endArrow=classic;html=1;rounded=0;entryX=0.25;entryY=0;entryDx=0;entryDy=0;" parent="1" target="Hf_RA5JBVKpgCVO6AaP0-24" edge="1">
          <mxGeometry width="50" height="50" relative="1" as="geometry">
            <mxPoint x="640" y="-120" as="sourcePoint" />
            <mxPoint x="530" as="targetPoint" />
          </mxGeometry>
        </mxCell>
        <mxCell id="Hf_RA5JBVKpgCVO6AaP0-27" value="refers to" style="text;html=1;align=center;verticalAlign=middle;whiteSpace=wrap;rounded=0;" parent="1" vertex="1">
          <mxGeometry x="645" y="-90" width="60" height="30" as="geometry" />
        </mxCell>
        <mxCell id="Hf_RA5JBVKpgCVO6AaP0-28" value="auth.controller.js" style="swimlane;whiteSpace=wrap;html=1;" parent="1" vertex="1">
          <mxGeometry x="880" y="-30" width="220" height="70" as="geometry" />
        </mxCell>
        <mxCell id="Hf_RA5JBVKpgCVO6AaP0-29" value="- Contains functions for authentication&lt;div&gt;after routing&lt;/div&gt;" style="text;html=1;align=left;verticalAlign=middle;resizable=0;points=[];autosize=1;strokeColor=none;fillColor=none;" parent="Hf_RA5JBVKpgCVO6AaP0-28" vertex="1">
          <mxGeometry y="20" width="220" height="40" as="geometry" />
        </mxCell>
        <mxCell id="Hf_RA5JBVKpgCVO6AaP0-30" value="" style="endArrow=classic;html=1;rounded=0;exitX=1;exitY=0.5;exitDx=0;exitDy=0;entryX=-0.002;entryY=0.311;entryDx=0;entryDy=0;entryPerimeter=0;" parent="1" source="Hf_RA5JBVKpgCVO6AaP0-24" target="Hf_RA5JBVKpgCVO6AaP0-29" edge="1">
          <mxGeometry width="50" height="50" relative="1" as="geometry">
            <mxPoint x="480" y="50" as="sourcePoint" />
            <mxPoint x="530" as="targetPoint" />
          </mxGeometry>
        </mxCell>
        <mxCell id="Hf_RA5JBVKpgCVO6AaP0-31" value="refers to" style="text;html=1;align=center;verticalAlign=middle;whiteSpace=wrap;rounded=0;" parent="1" vertex="1">
          <mxGeometry x="810" y="-30" width="60" height="30" as="geometry" />
        </mxCell>
      </root>
    </mxGraphModel>
  </diagram>
</mxfile>
